<?xml version="1.0" standalone="no"?>
<!DOCTYPE svg PUBLIC "-//W3C//DTD SVG 20010904//EN"
 "http://www.w3.org/TR/2001/REC-SVG-20010904/DTD/svg10.dtd">
<svg version="1.0" xmlns="http://www.w3.org/2000/svg"
 width="30.000000pt" height="30.000000pt" viewBox="0 0 256.000000 256.000000"
 preserveAspectRatio="xMidYMid meet">

<g transform="translate(0.000000,256.000000) scale(0.100000,-0.100000)"
fill="#000000" stroke="none">
<path d="M655 1859 c-341 -259 -627 -478 -637 -486 -15 -13 -7 -26 88 -151 58
-75 108 -138 112 -139 4 -2 243 177 532 397 289 220 527 400 530 400 3 0 241
-180 530 -400 289 -220 528 -399 532 -397 4 1 55 64 113 140 l105 137 -58 45
c-31 24 -127 97 -212 162 l-155 119 -3 262 -2 262 -250 0 -250 0 0 -71 0 -70
-165 126 c-91 69 -171 128 -178 131 -7 2 -292 -207 -632 -467z"/>
<path d="M853 1369 l-423 -322 0 -413 0 -414 340 0 340 0 0 280 0 280 170 0
170 0 0 -280 0 -280 340 0 340 0 0 414 0 413 -419 319 c-231 175 -423 320
-428 321 -4 2 -198 -142 -430 -318z"/>
</g>
</svg>
